<svg xmlns="http://www.w3.org/2000/svg" viewBox="0 0 1000 1000"><defs><style>.cls-1{isolation:isolate;}.cls-2,.cls-8{fill:#69b7c9;}.cls-3{fill:#47a8bd;}.cls-4{fill:#3b92a5;}.cls-5,.cls-9{fill:#f4527b;}.cls-6{fill:#e60f45;}.cls-7{fill:#f12658;}.cls-8{opacity:0.4;}.cls-8,.cls-9{mix-blend-mode:screen;}.cls-9{opacity:0.3;}</style></defs><g class="cls-1"><g id="Слой_1" data-name="Слой 1"><path class="cls-2" d="M704.5,399.92V858a32.82,32.82,0,0,1-32.72,32.72H328.22A32.82,32.82,0,0,1,295.5,858V399.92Z"/><path class="cls-3" d="M704.5,825.27V858a32.82,32.82,0,0,1-32.72,32.72H328.22A32.82,32.82,0,0,1,295.5,858V825.27A32.82,32.82,0,0,0,328.22,858H671.78A32.82,32.82,0,0,0,704.5,825.27Z"/><rect class="cls-3" x="230.06" y="269.04" width="539.88" height="130.88" rx="24.54"/><rect class="cls-4" x="295.5" y="399.92" width="409" height="32.72"/><rect class="cls-5" x="475.46" y="399.92" width="49.08" height="490.8"/><rect class="cls-5" x="475.46" y="269.04" width="49.08" height="130.88"/><rect class="cls-6" x="475.46" y="399.92" width="49.08" height="32.72"/><rect class="cls-7" x="475.46" y="857.99" width="49.08" height="32.72"/><rect class="cls-8" x="262.78" y="301.76" width="294.48" height="32.72" rx="16.36"/><path class="cls-5" d="M616.14,110.18A163.83,163.83,0,0,0,500,218.2a163.83,163.83,0,0,0-116.14-108c-20.11-5-39.28,11.35-39.28,32.06v94.08A32.72,32.72,0,0,0,377.3,269H622.7a32.72,32.72,0,0,0,32.72-32.72V142.24C655.42,121.53,636.25,105.23,616.14,110.18Z"/><path class="cls-9" d="M365.84,179.29a8.18,8.18,0,0,1-8.18-8.18,41.21,41.21,0,0,1,15.92-32.64,38.89,38.89,0,0,1,33.5-7.36A8.18,8.18,0,1,1,403.16,147a22.82,22.82,0,0,0-19.49,4.35A25.33,25.33,0,0,0,374,171.11,8.18,8.18,0,0,1,365.84,179.29Z"/><path class="cls-9" d="M634.16,179.29a8.18,8.18,0,0,1-8.18-8.18,25.33,25.33,0,0,0-9.65-19.77A22.73,22.73,0,0,0,596.84,147a8.18,8.18,0,1,1-3.92-15.88,38.89,38.89,0,0,1,33.5,7.36,41.21,41.21,0,0,1,15.92,32.64A8.18,8.18,0,0,1,634.16,179.29Z"/><path class="cls-7" d="M561.13,185.43A86.13,86.13,0,0,0,500,242.64a86.13,86.13,0,0,0-61.13-57.21c-10.58-2.61-20.67,6-20.67,16.87v49.51A17.22,17.22,0,0,0,435.42,269H564.58a17.22,17.22,0,0,0,17.22-17.23V202.3C581.8,191.4,571.71,182.82,561.13,185.43Z"/></g></g></svg>