<svg xmlns="http://www.w3.org/2000/svg" viewBox="0 0 3000 2000"><defs><style>.cls-1{isolation:isolate;}.cls-2{fill:#fff;}.cls-14,.cls-3,.cls-6{fill:#f3a7a0;}.cls-4{fill:#ef8980;}.cls-5{fill:#ed786e;}.cls-13,.cls-6{opacity:0.4;}.cls-13,.cls-14,.cls-6,.cls-8{mix-blend-mode:screen;}.cls-7,.cls-8{fill:#542344;}.cls-14,.cls-8{opacity:0.3;}.cls-9{fill:#481e39;}.cls-10,.cls-13{fill:#e41b2b;}.cls-11{fill:#c91826;}.cls-12{fill:#b71523;}</style></defs><g class="cls-1"><g id="Слой_1" data-name="Слой 1"><rect class="cls-2" width="3000" height="2000"/><path class="cls-3" d="M1301.11,1154.43v716a79.79,79.79,0,0,1-79.56,79.56H386.21a79.79,79.79,0,0,1-79.56-79.56v-716Z"/><path class="cls-4" d="M1301.11,1790.89v79.55a79.79,79.79,0,0,1-79.56,79.56H386.21a79.79,79.79,0,0,1-79.56-79.56v-79.55a79.79,79.79,0,0,0,79.56,79.55h835.34A79.79,79.79,0,0,0,1301.11,1790.89Z"/><rect class="cls-4" x="147.54" y="836.21" width="1312.69" height="318.23" rx="59.67"/><rect class="cls-5" x="306.65" y="1154.43" width="994.46" height="79.56"/><rect class="cls-6" x="227.09" y="915.76" width="716.01" height="79.56" rx="39.78"/><path class="cls-7" d="M1086.27,450C952.85,482.84,846.2,583.16,803.88,712.6,761.56,583.16,654.9,482.84,521.48,450c-48.88-12-95.5,27.6-95.5,77.94V756.65a79.57,79.57,0,0,0,79.56,79.56h596.68a79.56,79.56,0,0,0,79.55-79.56V527.9C1181.77,477.56,1135.16,437.91,1086.27,450Z"/><path class="cls-8" d="M477.68,618a19.88,19.88,0,0,1-19.89-19.89,100.2,100.2,0,0,1,38.71-79.36c23.4-18.34,53-24.92,81.44-17.89a19.88,19.88,0,1,1-9.52,38.61A55.35,55.35,0,0,0,521,550.05a61.53,61.53,0,0,0-23.46,48.05A19.88,19.88,0,0,1,477.68,618Z"/><path class="cls-8" d="M1130.08,618a19.88,19.88,0,0,1-19.89-19.89,61.56,61.56,0,0,0-23.46-48.05,55.19,55.19,0,0,0-47.39-10.59,19.88,19.88,0,1,1-9.52-38.61c28.38-7,58-.45,81.44,17.89A100.2,100.2,0,0,1,1150,598.1,19.88,19.88,0,0,1,1130.08,618Z"/><path class="cls-9" d="M952.51,632.91C882,650.29,826,703.53,803.88,772c-22.1-68.49-78.14-121.73-148.63-139.11C629.52,626.58,605,647.44,605,674V794.33a41.87,41.87,0,0,0,41.87,41.88h314a41.87,41.87,0,0,0,41.87-41.88V674C1002.77,647.44,978.24,626.58,952.51,632.91Z"/><path class="cls-10" d="M2693.35,756.65V1870.44a79.79,79.79,0,0,1-79.56,79.56H1778.45a79.79,79.79,0,0,1-79.56-79.56V756.65Z"/><path class="cls-11" d="M2693.35,1790.89v79.55a79.79,79.79,0,0,1-79.56,79.56H1778.45a79.79,79.79,0,0,1-79.56-79.56v-79.55a79.79,79.79,0,0,0,79.56,79.55h835.34A79.79,79.79,0,0,0,2693.35,1790.89Z"/><rect class="cls-11" x="1539.78" y="438.42" width="1312.69" height="318.23" rx="59.67"/><rect class="cls-12" x="1698.89" y="756.65" width="994.46" height="79.56"/><rect class="cls-13" x="1619.34" y="517.98" width="716.01" height="79.56" rx="39.78"/><path class="cls-3" d="M2478.52,52.18c-133.42,32.87-240.08,133.2-282.4,262.63-42.32-129.43-149-229.76-282.39-262.63-48.89-12-95.5,27.6-95.5,77.94V358.87a79.56,79.56,0,0,0,79.55,79.55h596.68A79.56,79.56,0,0,0,2574,358.87V130.12C2574,79.78,2527.4,40.13,2478.52,52.18Z"/><path class="cls-14" d="M1869.92,220.2A19.88,19.88,0,0,1,1850,200.31,100.22,100.22,0,0,1,1888.74,121c23.4-18.33,53-24.92,81.44-17.89a19.89,19.89,0,1,1-9.52,38.62,55.38,55.38,0,0,0-47.39,10.58,61.59,61.59,0,0,0-23.46,48.05A19.88,19.88,0,0,1,1869.92,220.2Z"/><path class="cls-14" d="M2522.32,220.2a19.88,19.88,0,0,1-19.89-19.89A61.56,61.56,0,0,0,2479,152.26a55.19,55.19,0,0,0-47.39-10.58,19.89,19.89,0,0,1-9.52-38.62c28.38-7,58-.44,81.44,17.89a100.22,100.22,0,0,1,38.71,79.36A19.87,19.87,0,0,1,2522.32,220.2Z"/><path class="cls-4" d="M2344.75,235.13c-70.49,17.37-126.53,70.61-148.63,139.11C2174,305.74,2118,252.5,2047.49,235.13c-25.73-6.34-50.26,14.53-50.26,41V396.55a41.87,41.87,0,0,0,41.87,41.87h314A41.87,41.87,0,0,0,2395,396.55V276.16C2395,249.66,2370.48,228.79,2344.75,235.13Z"/><path class="cls-3" d="M1997.43,1257.8a116.28,116.28,0,1,1-232.55,0c0-64.22,52-92.78,116.27-92.78S1997.43,1193.58,1997.43,1257.8Z"/><path class="cls-3" d="M2443.75,1257.8a116.28,116.28,0,1,0,232.55,0c0-64.22-52.06-92.78-116.28-92.78S2443.75,1193.58,2443.75,1257.8Z"/><path class="cls-7" d="M2220.59,1463.34c-58.86,0-106.77-25.48-138.54-73.69-25.79-39.14-40-93.06-40-151.81a23.49,23.49,0,1,1,47,0c0,86.3,34.56,178.52,131.55,178.52s131.54-92.22,131.54-178.52a23.5,23.5,0,0,1,47,0c0,58.75-14.21,112.67-40,151.81C2327.36,1437.86,2279.45,1463.34,2220.59,1463.34Z"/><circle class="cls-9" cx="1964.48" cy="1036.96" r="63.78"/><circle class="cls-9" cx="2476.7" cy="1036.96" r="63.78"/><path class="cls-10" d="M556.25,1567.8a116.28,116.28,0,1,1-232.55,0c0-64.22,52.06-92.78,116.28-92.78S556.25,1503.58,556.25,1567.8Z"/><path class="cls-10" d="M1002.57,1567.8a116.28,116.28,0,1,0,232.55,0c0-64.22-52-92.78-116.27-92.78S1002.57,1503.58,1002.57,1567.8Z"/><path class="cls-10" d="M779.41,1753.34c-48.14,0-92.64-17.71-125.32-49.88-34.81-34.26-53.2-81.16-53.2-135.62a23.49,23.49,0,1,1,47,0c0,95.17,68.19,138.52,131.54,138.52S911,1663,911,1567.84a23.49,23.49,0,0,1,47,0c0,54.46-18.4,101.36-53.21,135.62C872.05,1735.63,827.55,1753.34,779.41,1753.34Z"/><circle class="cls-9" cx="498.3" cy="1366.96" r="63.78"/><circle class="cls-9" cx="1060.52" cy="1366.96" r="63.78"/></g></g></svg>