<svg id="Слой_1" data-name="Слой 1" xmlns="http://www.w3.org/2000/svg" viewBox="0 0 1588 2758.75"><defs><style>.cls-1{fill:#714324;}.cls-2{fill:#2a7333;}.cls-3{fill:#2c7e34;}.cls-4{fill:#2d8a36;}.cls-5{fill:#2f9537;}</style></defs><rect class="cls-1" x="644.28" y="2459.31" width="299.44" height="299.44" rx="44.72"/><path class="cls-2" d="M767,1467.19,161,2383.16c-82.53,124.73,6.92,291.16,156.48,291.16H1529.57c149.55,0,239-166.43,156.47-291.16l-606.07-916C1005.79,1355.07,841.21,1355.07,767,1467.19Z" transform="translate(-129.5 -159.94)"/><path class="cls-3" d="M784.72,1051.34,260.34,1870.42c-70.34,109.68,8.44,253.8,138.78,253.8H1447.88c130.34,0,209.12-144.12,138.78-253.8l-524.38-819.08C997.51,950.06,849.49,950.06,784.72,1051.34Z" transform="translate(-129.5 -159.94)"/><path class="cls-4" d="M802.41,635.49l-442.7,722.18c-58.15,94.64,10,216.45,121.1,216.45h885.38c111.13,0,179.25-121.81,121.1-216.45l-442.7-722.18C989.23,545.05,857.77,545.05,802.41,635.49Z" transform="translate(-129.5 -159.94)"/><path class="cls-5" d="M820.1,219.64l-361,625.29c-46,79.6,11.49,179.1,103.4,179.1h722c91.91,0,149.36-99.5,103.4-179.1l-361-625.29C981,140,866.05,140,820.1,219.64Z" transform="translate(-129.5 -159.94)"/></svg>