<svg xmlns="http://www.w3.org/2000/svg" viewBox="0 0 1000 1000"><defs><style>.cls-1{isolation:isolate;}.cls-2,.cls-8{fill:#f4527b;}.cls-3{fill:#f12658;}.cls-4{fill:#e60f45;}.cls-5,.cls-9{fill:#fdb321;}.cls-6{fill:#ca8702;}.cls-7{fill:#f0a202;}.cls-8{opacity:0.4;}.cls-8,.cls-9{mix-blend-mode:screen;}.cls-9{opacity:0.3;}</style></defs><g class="cls-1"><g id="Слой_1" data-name="Слой 1"><path class="cls-2" d="M704.5,440.82V817.09a32.82,32.82,0,0,1-32.72,32.72H328.22a32.82,32.82,0,0,1-32.72-32.72V440.82Z"/><path class="cls-3" d="M704.5,784.37v32.72a32.82,32.82,0,0,1-32.72,32.72H328.22a32.82,32.82,0,0,1-32.72-32.72V784.37a32.82,32.82,0,0,0,32.72,32.72H671.78A32.82,32.82,0,0,0,704.5,784.37Z"/><rect class="cls-3" x="230.06" y="309.94" width="539.88" height="130.88" rx="24.54"/><rect class="cls-4" x="295.5" y="440.82" width="409" height="32.72"/><rect class="cls-5" x="475.46" y="440.82" width="49.08" height="409"/><rect class="cls-5" x="475.46" y="309.94" width="49.08" height="130.88"/><rect class="cls-6" x="475.46" y="440.82" width="49.08" height="32.72"/><rect class="cls-7" x="475.46" y="817.09" width="49.08" height="32.72"/><rect class="cls-8" x="262.78" y="342.66" width="294.48" height="32.72" rx="16.36"/><path class="cls-5" d="M616.14,151.08A163.83,163.83,0,0,0,500,259.1a163.83,163.83,0,0,0-116.14-108c-20.11-5-39.28,11.35-39.28,32.06v94.08a32.72,32.72,0,0,0,32.72,32.72H622.7a32.72,32.72,0,0,0,32.72-32.72V183.14C655.42,162.43,636.25,146.13,616.14,151.08Z"/><path class="cls-9" d="M365.84,220.19a8.18,8.18,0,0,1-8.18-8.18,41.21,41.21,0,0,1,15.92-32.64,38.89,38.89,0,0,1,33.5-7.36,8.18,8.18,0,1,1-3.92,15.88,22.82,22.82,0,0,0-19.49,4.35A25.33,25.33,0,0,0,374,212,8.18,8.18,0,0,1,365.84,220.19Z"/><path class="cls-9" d="M634.16,220.19A8.18,8.18,0,0,1,626,212a25.33,25.33,0,0,0-9.65-19.77,22.73,22.73,0,0,0-19.49-4.35A8.18,8.18,0,1,1,592.92,172a38.89,38.89,0,0,1,33.5,7.36A41.21,41.21,0,0,1,642.34,212,8.18,8.18,0,0,1,634.16,220.19Z"/><path class="cls-7" d="M561.13,226.33A86.13,86.13,0,0,0,500,283.54a86.13,86.13,0,0,0-61.13-57.21c-10.58-2.61-20.67,6-20.67,16.87v49.51a17.23,17.23,0,0,0,17.22,17.23H564.58a17.23,17.23,0,0,0,17.22-17.23V243.2C581.8,232.3,571.71,223.72,561.13,226.33Z"/><circle class="cls-5" cx="475.46" cy="506.25" r="16.36"/><circle class="cls-5" cx="524.54" cy="718.93" r="16.36"/><circle class="cls-5" cx="344.58" cy="522.61" r="16.36"/><circle class="cls-5" cx="426.38" cy="571.69" r="16.36"/><circle class="cls-5" cx="344.58" cy="637.13" r="16.36"/><circle class="cls-5" cx="442.74" cy="669.85" r="16.36"/><circle class="cls-5" cx="426.38" cy="784.37" r="16.36"/><circle class="cls-5" cx="377.3" cy="718.93" r="16.36"/><circle class="cls-5" cx="328.22" cy="768.01" r="16.36"/><circle class="cls-5" cx="557.26" cy="555.33" r="16.36"/><circle class="cls-5" cx="639.06" cy="522.61" r="16.36"/><circle class="cls-5" cx="573.62" cy="637.13" r="16.36"/><circle class="cls-5" cx="655.42" cy="718.93" r="16.36"/><circle class="cls-5" cx="589.98" cy="784.37" r="16.36"/><circle class="cls-5" cx="655.42" cy="620.77" r="16.36"/></g></g></svg>