<svg xmlns="http://www.w3.org/2000/svg" viewBox="0 0 1000 1000"><defs><style>.cls-1{isolation:isolate;}.cls-2,.cls-8{fill:#f4527b;}.cls-3{fill:#f12658;}.cls-4{fill:#e60f45;}.cls-5,.cls-9{fill:#69b7c9;}.cls-6{fill:#3b92a5;}.cls-7{fill:#47a8bd;}.cls-8{opacity:0.4;}.cls-8,.cls-9{mix-blend-mode:screen;}.cls-9{opacity:0.3;}</style></defs><g class="cls-1"><g id="Слой_1" data-name="Слой 1"><path class="cls-2" d="M704.5,481.71V776.19a32.82,32.82,0,0,1-32.72,32.72H328.22a32.82,32.82,0,0,1-32.72-32.72V481.71Z"/><path class="cls-3" d="M704.5,743.47v32.72a32.82,32.82,0,0,1-32.72,32.72H328.22a32.82,32.82,0,0,1-32.72-32.72V743.47a32.82,32.82,0,0,0,32.72,32.72H671.78A32.82,32.82,0,0,0,704.5,743.47Z"/><rect class="cls-3" x="230.06" y="350.84" width="539.88" height="130.88" rx="24.54"/><rect class="cls-4" x="295.5" y="481.71" width="409" height="32.72"/><rect class="cls-5" x="475.46" y="481.71" width="49.08" height="327.2"/><rect class="cls-5" x="475.46" y="350.84" width="49.08" height="130.88"/><rect class="cls-6" x="475.46" y="481.71" width="49.08" height="32.72"/><rect class="cls-7" x="475.46" y="776.19" width="49.08" height="32.72"/><rect class="cls-8" x="262.78" y="383.56" width="294.48" height="32.72" rx="16.36"/><path class="cls-5" d="M616.14,192A163.83,163.83,0,0,0,500,300,163.83,163.83,0,0,0,383.86,192C363.75,187,344.58,203.33,344.58,224v94.08a32.73,32.73,0,0,0,32.72,32.72H622.7a32.73,32.73,0,0,0,32.72-32.72V224C655.42,203.33,636.25,187,616.14,192Z"/><path class="cls-9" d="M365.84,261.09a8.18,8.18,0,0,1-8.18-8.18,41.21,41.21,0,0,1,15.92-32.64,38.89,38.89,0,0,1,33.5-7.36,8.18,8.18,0,1,1-3.92,15.88,22.82,22.82,0,0,0-19.49,4.35A25.33,25.33,0,0,0,374,252.91,8.18,8.18,0,0,1,365.84,261.09Z"/><path class="cls-9" d="M634.16,261.09a8.18,8.18,0,0,1-8.18-8.18,25.33,25.33,0,0,0-9.65-19.77,22.73,22.73,0,0,0-19.49-4.35,8.18,8.18,0,1,1-3.92-15.88,38.89,38.89,0,0,1,33.5,7.36,41.21,41.21,0,0,1,15.92,32.64A8.18,8.18,0,0,1,634.16,261.09Z"/><path class="cls-7" d="M561.13,267.23A86.13,86.13,0,0,0,500,324.44a86.13,86.13,0,0,0-61.13-57.21c-10.58-2.61-20.67,6-20.67,16.87v49.51a17.23,17.23,0,0,0,17.22,17.23H564.58a17.23,17.23,0,0,0,17.22-17.23V284.1C581.8,273.2,571.71,264.62,561.13,267.23Z"/></g></g></svg>